<svg width="32" height="32" fill="none" xmlns="http://www.w3.org/2000/svg"><path d="m7.64 24.46-3.369 5.2.359 1.7 1.696-.363L9.692 25.8a13.357 13.357 0 0 1-2.053-1.34Zm14.258-1.817c.023-.046.037-.098.058-.147.085-.187.16-.374.22-.571.01-.035.015-.07.026-.103.063-.215.115-.432.157-.652v-.034c.312-1.87-.232-3.957-1.477-5.842l1.776-2.742c2.047.26 3.816-.255 4.668-1.571 1.476-2.277-.32-6.067-4.009-8.469-3.69-2.403-7.876-2.504-9.35-.23-.854 1.318-.605 3.147.469 4.916l-1.78 2.743c-2.222-.373-4.345-.026-5.924 1.024-.01.003-.02.006-.027.012a6.002 6.002 0 0 0-.531.407c-.028.022-.06.043-.082.066a4.847 4.847 0 0 0-.434.435c-.032.038-.076.072-.107.112-.17.193-.325.399-.464.616-2.214 3.413-.325 8.577 4.213 11.534 4.54 2.957 10.016 2.583 12.226-.83.139-.216.267-.442.372-.674ZM20.594 6.71c-1.419-.923-2.112-2.379-1.544-3.257.567-.875 2.178-.835 3.594.088 1.422.923 2.109 2.382 1.544 3.257-.565.876-2.173.836-3.594-.088Z" fill="#009FAC"/></svg>