<svg width="40" height="40" fill="none" xmlns="http://www.w3.org/2000/svg"><path d="m9.548 30.574-4.21 6.5.448 2.126 2.12-.454 4.208-6.496a16.705 16.705 0 0 1-2.566-1.676Zm17.824-2.27c.028-.058.046-.122.072-.184.106-.234.2-.468.276-.714.012-.044.018-.088.032-.128.078-.269.143-.541.196-.816v-.042c.39-2.338-.29-4.946-1.846-7.302l2.22-3.428c2.558.326 4.77-.318 5.834-1.964 1.846-2.846-.4-7.584-5.01-10.586C24.532.136 19.3.01 17.458 2.852c-1.068 1.648-.756 3.934.586 6.146l-2.224 3.428c-2.778-.466-5.432-.032-7.406 1.28-.012.004-.026.008-.034.016a7.47 7.47 0 0 0-.664.508c-.034.028-.074.054-.102.082-.192.17-.373.351-.542.544-.04.048-.096.09-.134.14a6.203 6.203 0 0 0-.58.77c-2.768 4.266-.406 10.722 5.266 14.418 5.676 3.696 12.52 3.228 15.282-1.038.174-.27.334-.552.466-.842Zm-1.63-19.916c-1.774-1.154-2.64-2.974-1.93-4.072.708-1.094 2.722-1.044 4.492.11 1.778 1.154 2.636 2.978 1.93 4.072-.706 1.094-2.716 1.044-4.492-.11Z" fill="#009FAC"/></svg>