<svg width="111" height="110" viewBox="0 0 111 110" fill="none" xmlns="http://www.w3.org/2000/svg">
<g filter="url(#filter0_d_6364_1908)">
<path d="M20.5 51C20.5 31.67 36.17 16 55.5 16C74.83 16 90.5 31.67 90.5 51C90.5 70.33 74.83 86 55.5 86C36.17 86 20.5 70.33 20.5 51Z" fill="white"/>
<path d="M52.338 34C53.5399 34 54.225 35.1974 54.225 36.3999V43.7697H52.7035C52.4076 43.0379 51.8665 42.4318 51.173 42.0553C50.4795 41.6789 49.6767 41.5555 48.9022 41.7063C48.1277 41.8571 47.4297 42.2727 46.9279 42.8819C46.426 43.491 46.1516 44.2559 46.1516 45.0453C46.1516 45.8347 46.426 46.5996 46.9279 47.2088C47.4297 47.818 48.1277 48.2336 48.9022 48.3844C49.6767 48.5352 50.4795 48.4118 51.173 48.0353C51.8665 47.6589 52.4076 47.0528 52.7035 46.321H54.225V64.8568C54.225 65.8705 53.7966 66.8791 52.8939 67.3401C52.0754 67.769 51.1659 67.9953 50.2419 68C47.6749 68 45.7658 66.7006 44.5367 65.163C43.6855 64.1019 43.0919 62.8577 42.8027 61.5283C42.0088 61.2939 41.2736 60.8939 40.6454 60.3547C39.4384 59.3155 38.5 57.6486 38.5 55.1926C38.5 53.9085 38.5918 52.7893 38.823 51.8487H45.98C47.1326 51.8487 48.088 52.6992 48.2495 53.8064C47.5209 54.108 46.9197 54.6535 46.5489 55.3497C46.178 56.0458 46.0605 56.8493 46.2164 57.6226C46.3724 58.3959 46.7921 59.0909 47.4038 59.5887C48.0155 60.0865 48.7811 60.3561 49.5696 60.3514C50.358 60.3467 51.1203 60.0679 51.726 59.5629C52.3317 59.0578 52.7432 58.3578 52.8899 57.5827C53.0366 56.8076 52.9095 56.0056 52.5303 55.3139C52.1512 54.6223 51.5435 54.0839 50.8114 53.7911C50.7221 52.5701 50.1743 51.4281 49.2781 50.5946C48.3819 49.761 47.2036 49.2976 45.98 49.2974H40.268C40.5226 49.0869 40.8059 48.914 41.1095 48.7838C40.9343 48.1588 40.8327 47.5155 40.8069 46.8669C40.7508 45.6168 40.9378 44.3157 41.3084 43.1574C41.6756 42.0178 42.257 40.9072 43.073 40.1401C43.5849 39.641 44.2334 39.3054 44.9362 39.1757C45.2745 37.747 46.1364 36.5666 47.2363 35.7111C48.649 34.6089 50.5003 34 52.3363 34H52.338ZM56.775 59.5026H59.58C60.865 59.5026 62.0973 58.9918 63.0059 58.0828C63.9145 57.1737 64.425 55.9407 64.425 54.6551V51.6021C65.1565 51.3061 65.7622 50.7647 66.1385 50.0708C66.5148 49.377 66.6381 48.5737 66.4874 47.7989C66.3367 47.024 65.9213 46.3256 65.3124 45.8236C64.7035 45.3215 63.939 45.0469 63.15 45.0469C62.361 45.0469 61.5965 45.3215 60.9876 45.8236C60.3787 46.3256 59.9633 47.024 59.8126 47.7989C59.6619 48.5737 59.7852 49.377 60.1615 50.0708C60.5378 50.7647 61.1435 51.3061 61.875 51.6021V54.6551C61.875 55.2641 61.6332 55.8481 61.2028 56.2788C60.7724 56.7094 60.1887 56.9513 59.58 56.9513H56.775V45.0572V45.0453V36.3999C56.775 35.1974 57.4601 34 58.662 34C60.5014 34 62.351 34.6089 63.7637 35.7111C64.8636 36.5666 65.7255 37.7487 66.0638 39.1757C66.7778 39.2947 67.4136 39.6587 67.927 40.1401C68.743 40.9072 69.3244 42.0161 69.6916 43.1574C70.0622 44.3157 70.2492 45.6168 70.1931 46.8669C70.1642 47.5065 70.0707 48.1596 69.8905 48.7838L70.0027 48.8348C70.6317 49.1308 71.1417 49.5951 71.5225 50.2125C72.245 51.3776 72.5 53.0546 72.5 55.1926C72.5 57.6503 71.5616 59.3189 70.3546 60.3547C69.7259 60.8941 68.9901 61.2941 68.1956 61.5283C67.9068 62.8575 67.3139 64.1017 66.4633 65.163C65.2342 66.7006 63.3251 68 60.7564 68C59.8325 67.9959 58.9231 67.7701 58.1044 67.3418C57.2034 66.8791 56.775 65.8705 56.775 64.8568V59.5026ZM48.7 45.0453C48.7 44.8198 48.7896 44.6035 48.949 44.444C49.1084 44.2845 49.3246 44.1949 49.55 44.1949C49.7754 44.1949 49.9916 44.2845 50.151 44.444C50.3104 44.6035 50.4 44.8198 50.4 45.0453C50.4 45.2709 50.3104 45.4872 50.151 45.6467C49.9916 45.8062 49.7754 45.8957 49.55 45.8957C49.3246 45.8957 49.1084 45.8062 48.949 45.6467C48.7896 45.4872 48.7 45.2709 48.7 45.0453ZM49.55 56.1009C49.3246 56.1009 49.1084 56.1904 48.949 56.3499C48.7896 56.5094 48.7 56.7257 48.7 56.9513C48.7 57.1768 48.7896 57.3931 48.949 57.5526C49.1084 57.7121 49.3246 57.8017 49.55 57.8017C49.7754 57.8017 49.9916 57.7121 50.151 57.5526C50.3104 57.3931 50.4 57.1768 50.4 56.9513C50.4 56.7257 50.3104 56.5094 50.151 56.3499C49.9916 56.1904 49.7754 56.1009 49.55 56.1009ZM62.3 48.447C62.3 48.6726 62.3896 48.8889 62.549 49.0484C62.7084 49.2079 62.9246 49.2974 63.15 49.2974C63.3754 49.2974 63.5916 49.2079 63.751 49.0484C63.9104 48.8889 64 48.6726 64 48.447C64 48.2215 63.9104 48.0052 63.751 47.8457C63.5916 47.6862 63.3754 47.5966 63.15 47.5966C62.9246 47.5966 62.7084 47.6862 62.549 47.8457C62.3896 48.0052 62.3 48.2215 62.3 48.447Z" fill="#009FAC"/>
</g>
<defs>
<filter id="filter0_d_6364_1908" x="0.5" y="0" width="110" height="110" filterUnits="userSpaceOnUse" color-interpolation-filters="sRGB">
<feFlood flood-opacity="0" result="BackgroundImageFix"/>
<feColorMatrix in="SourceAlpha" type="matrix" values="0 0 0 0 0 0 0 0 0 0 0 0 0 0 0 0 0 0 127 0" result="hardAlpha"/>
<feOffset dy="4"/>
<feGaussianBlur stdDeviation="10"/>
<feColorMatrix type="matrix" values="0 0 0 0 0.00256944 0 0 0 0 0.213117 0 0 0 0 0.616667 0 0 0 0.15 0"/>
<feBlend mode="normal" in2="BackgroundImageFix" result="effect1_dropShadow_6364_1908"/>
<feBlend mode="normal" in="SourceGraphic" in2="effect1_dropShadow_6364_1908" result="shape"/>
</filter>
</defs>
</svg>
