<svg width="111" height="110" viewBox="0 0 111 110" fill="none" xmlns="http://www.w3.org/2000/svg">
<g filter="url(#filter0_d_6364_1828)">
<path d="M20.5 51C20.5 31.67 36.17 16 55.5 16V16C74.83 16 90.5 31.67 90.5 51V51C90.5 70.33 74.83 86 55.5 86V86C36.17 86 20.5 70.33 20.5 51V51Z" fill="white"/>
<path d="M57.2 62.9V66.3C57.2 66.7509 57.0209 67.1833 56.7021 67.5021C56.3833 67.8209 55.9509 68 55.5 68C55.0491 68 54.6167 67.8209 54.2979 67.5021C53.9791 67.1833 53.8 66.7509 53.8 66.3V62.9H50.4V66.3C50.4 66.7509 50.2209 67.1833 49.9021 67.5021C49.5833 67.8209 49.1509 68 48.7 68C48.2491 68 47.8167 67.8209 47.4979 67.5021C47.1791 67.1833 47 66.7509 47 66.3V62.9C47 62.8031 47.0085 62.7096 47.0238 62.6178C46.2976 62.3642 45.6379 61.95 45.094 61.406C44.55 60.8621 44.1358 60.2024 43.8822 59.4762C43.7891 59.4927 43.6946 59.5007 43.6 59.5H40.2C39.7491 59.5 39.3167 59.3209 38.9979 59.0021C38.6791 58.6833 38.5 58.2509 38.5 57.8C38.5 57.3491 38.6791 56.9167 38.9979 56.5979C39.3167 56.2791 39.7491 56.1 40.2 56.1H43.6V52.7H40.2C39.7491 52.7 39.3167 52.5209 38.9979 52.2021C38.6791 51.8833 38.5 51.4509 38.5 51C38.5 50.5491 38.6791 50.1167 38.9979 49.7979C39.3167 49.4791 39.7491 49.3 40.2 49.3H43.6V45.9H40.2C39.7491 45.9 39.3167 45.7209 38.9979 45.4021C38.6791 45.0833 38.5 44.6509 38.5 44.2C38.5 43.7491 38.6791 43.3167 38.9979 42.9979C39.3167 42.6791 39.7491 42.5 40.2 42.5H43.6C43.6969 42.5 43.7904 42.5085 43.8822 42.5238C44.3922 41.055 45.555 39.8922 47.0238 39.3822C47.0081 39.289 47.0001 39.1946 47 39.1V35.7C47 35.2491 47.1791 34.8167 47.4979 34.4979C47.8167 34.1791 48.2491 34 48.7 34C49.1509 34 49.5833 34.1791 49.9021 34.4979C50.2209 34.8167 50.4 35.2491 50.4 35.7V39.1H53.8V35.7C53.8 35.2491 53.9791 34.8167 54.2979 34.4979C54.6167 34.1791 55.0491 34 55.5 34C55.9509 34 56.3833 34.1791 56.7021 34.4979C57.0209 34.8167 57.2 35.2491 57.2 35.7V39.1H60.6V35.7C60.6 35.2491 60.7791 34.8167 61.0979 34.4979C61.4167 34.1791 61.8491 34 62.3 34C62.7509 34 63.1833 34.1791 63.5021 34.4979C63.8209 34.8167 64 35.2491 64 35.7V39.1C64 39.1952 63.9915 39.2904 63.9762 39.3822C65.445 39.8922 66.6078 41.055 67.1178 42.5238C67.2109 42.5073 67.3054 42.4993 67.4 42.5H70.8C71.2509 42.5 71.6833 42.6791 72.0021 42.9979C72.3209 43.3167 72.5 43.7491 72.5 44.2C72.5 44.6509 72.3209 45.0833 72.0021 45.4021C71.6833 45.7209 71.2509 45.9 70.8 45.9H67.4V49.3H70.8C71.2509 49.3 71.6833 49.4791 72.0021 49.7979C72.3209 50.1167 72.5 50.5491 72.5 51C72.5 51.4509 72.3209 51.8833 72.0021 52.2021C71.6833 52.5209 71.2509 52.7 70.8 52.7H67.4V56.1H70.8C71.2509 56.1 71.6833 56.2791 72.0021 56.5979C72.3209 56.9167 72.5 57.3491 72.5 57.8C72.5 58.2509 72.3209 58.6833 72.0021 59.0021C71.6833 59.3209 71.2509 59.5 70.8 59.5H67.4C67.3031 59.5 67.2096 59.4915 67.1178 59.4762C66.8642 60.2024 66.45 60.8621 65.906 61.406C65.3621 61.95 64.7024 62.3642 63.9762 62.6178C63.9932 62.7096 64 62.8048 64 62.9V66.3C64 66.7509 63.8209 67.1833 63.5021 67.5021C63.1833 67.8209 62.7509 68 62.3 68C61.8491 68 61.4167 67.8209 61.0979 67.5021C60.7791 67.1833 60.6 66.7509 60.6 66.3V62.9H57.2ZM52.1 45.9C51.6491 45.9 51.2167 46.0791 50.8979 46.3979C50.5791 46.7167 50.4 47.1491 50.4 47.6V54.4C50.4 54.8509 50.5791 55.2833 50.8979 55.6021C51.2167 55.9209 51.6491 56.1 52.1 56.1H58.9C59.3509 56.1 59.7833 55.9209 60.1021 55.6021C60.4209 55.2833 60.6 54.8509 60.6 54.4V47.6C60.6 47.1491 60.4209 46.7167 60.1021 46.3979C59.7833 46.0791 59.3509 45.9 58.9 45.9H52.1Z" fill="#009FAC"/>
</g>
<defs>
<filter id="filter0_d_6364_1828" x="0.5" y="0" width="110" height="110" filterUnits="userSpaceOnUse" color-interpolation-filters="sRGB">
<feFlood flood-opacity="0" result="BackgroundImageFix"/>
<feColorMatrix in="SourceAlpha" type="matrix" values="0 0 0 0 0 0 0 0 0 0 0 0 0 0 0 0 0 0 127 0" result="hardAlpha"/>
<feOffset dy="4"/>
<feGaussianBlur stdDeviation="10"/>
<feColorMatrix type="matrix" values="0 0 0 0 0.00256944 0 0 0 0 0.213117 0 0 0 0 0.616667 0 0 0 0.15 0"/>
<feBlend mode="normal" in2="BackgroundImageFix" result="effect1_dropShadow_6364_1828"/>
<feBlend mode="normal" in="SourceGraphic" in2="effect1_dropShadow_6364_1828" result="shape"/>
</filter>
</defs>
</svg>
