<svg width="111" height="110" viewBox="0 0 111 110" fill="none" xmlns="http://www.w3.org/2000/svg">
<g filter="url(#filter0_d_6364_1867)">
<path d="M20.5 51C20.5 31.67 36.17 16 55.5 16C74.83 16 90.5 31.67 90.5 51C90.5 70.33 74.83 86 55.5 86C36.17 86 20.5 70.33 20.5 51Z" fill="white"/>
<path d="M63.5055 50.0733L66.4706 47.1076L59.3883 40.0238L56.4231 42.9896L48.6042 35.188C47.1311 33.7146 44.7325 33.7146 43.2594 35.188L39.671 38.7771C38.1978 40.2505 38.1978 42.6495 39.671 44.123L47.471 51.9246L38.5 60.9162V68H45.5824L54.5723 59.0083L62.3723 66.8099C64.1665 68.6045 66.584 67.9433 67.7171 66.8099L71.3055 63.2208C72.7787 61.7474 72.7787 59.3484 71.3055 57.8749L63.5055 50.0733V50.0733ZM50.1717 49.2422L42.3528 41.4406L45.9223 37.8515L48.3209 40.2505L46.0923 42.4984L48.7553 45.1619L51.0027 42.914L53.7413 45.6531L50.1717 49.2422V49.2422ZM65.0542 64.1464L57.2541 56.3448L60.8425 52.7557L63.581 55.4948L61.3336 57.7427L63.9965 60.4062L66.244 58.1583L68.6426 60.5573L65.0542 64.1464V64.1464ZM71.9477 41.6295C72.1228 41.4547 72.2617 41.2471 72.3564 41.0186C72.4512 40.7901 72.5 40.5451 72.5 40.2977C72.5 40.0503 72.4512 39.8054 72.3564 39.5768C72.2617 39.3483 72.1228 39.1407 71.9477 38.966L67.5283 34.5457C66.6406 33.6579 65.413 33.9979 64.8653 34.5457L61.4091 38.0026L68.4915 45.0864L71.9477 41.6295V41.6295Z" fill="#009FAC"/>
</g>
<defs>
<filter id="filter0_d_6364_1867" x="0.5" y="0" width="110" height="110" filterUnits="userSpaceOnUse" color-interpolation-filters="sRGB">
<feFlood flood-opacity="0" result="BackgroundImageFix"/>
<feColorMatrix in="SourceAlpha" type="matrix" values="0 0 0 0 0 0 0 0 0 0 0 0 0 0 0 0 0 0 127 0" result="hardAlpha"/>
<feOffset dy="4"/>
<feGaussianBlur stdDeviation="10"/>
<feColorMatrix type="matrix" values="0 0 0 0 0.00256944 0 0 0 0 0.213117 0 0 0 0 0.616667 0 0 0 0.15 0"/>
<feBlend mode="normal" in2="BackgroundImageFix" result="effect1_dropShadow_6364_1867"/>
<feBlend mode="normal" in="SourceGraphic" in2="effect1_dropShadow_6364_1867" result="shape"/>
</filter>
</defs>
</svg>
