<svg width="111" height="110" viewBox="0 0 111 110" fill="none" xmlns="http://www.w3.org/2000/svg">
<g filter="url(#filter0_d_6364_1802)">
<path d="M20.5 51C20.5 31.67 36.17 16 55.5 16C74.83 16 90.5 31.67 90.5 51C90.5 70.33 74.83 86 55.5 86C36.17 86 20.5 70.33 20.5 51Z" fill="white"/>
<path d="M55.5 31C56.4162 31 57.2949 31.3793 57.9427 32.0544C58.5906 32.7295 58.9545 33.6452 58.9545 34.6C58.9545 35.932 58.2636 37.102 57.2273 37.714V40H58.9545C62.1613 40 65.2366 41.3275 67.5041 43.6905C69.7716 46.0534 71.0455 49.2583 71.0455 52.6H72.7727C73.2308 52.6 73.6702 52.7896 73.9941 53.1272C74.318 53.4648 74.5 53.9226 74.5 54.4V59.8C74.5 60.2774 74.318 60.7352 73.9941 61.0728C73.6702 61.4104 73.2308 61.6 72.7727 61.6H71.0455V63.4C71.0455 64.3548 70.6815 65.2705 70.0336 65.9456C69.3858 66.6207 68.5071 67 67.5909 67H43.4091C42.4929 67 41.6142 66.6207 40.9664 65.9456C40.3185 65.2705 39.9545 64.3548 39.9545 63.4V61.6H38.2273C37.7692 61.6 37.3298 61.4104 37.0059 61.0728C36.682 60.7352 36.5 60.2774 36.5 59.8V54.4C36.5 53.9226 36.682 53.4648 37.0059 53.1272C37.3298 52.7896 37.7692 52.6 38.2273 52.6H39.9545C39.9545 49.2583 41.2284 46.0534 43.4959 43.6905C45.7634 41.3275 48.8387 40 52.0455 40H53.7727V37.714C52.7364 37.102 52.0455 35.932 52.0455 34.6C52.0455 33.6452 52.4094 32.7295 53.0573 32.0544C53.7051 31.3793 54.5838 31 55.5 31ZM47.7273 50.8C46.582 50.8 45.4837 51.2741 44.6739 52.118C43.864 52.9619 43.4091 54.1065 43.4091 55.3C43.4091 56.4935 43.864 57.6381 44.6739 58.482C45.4837 59.3259 46.582 59.8 47.7273 59.8C48.8725 59.8 49.9709 59.3259 50.7807 58.482C51.5905 57.6381 52.0455 56.4935 52.0455 55.3C52.0455 54.1065 51.5905 52.9619 50.7807 52.118C49.9709 51.2741 48.8725 50.8 47.7273 50.8ZM63.2727 50.8C62.1275 50.8 61.0291 51.2741 60.2193 52.118C59.4095 52.9619 58.9545 54.1065 58.9545 55.3C58.9545 56.4935 59.4095 57.6381 60.2193 58.482C61.0291 59.3259 62.1275 59.8 63.2727 59.8C64.418 59.8 65.5163 59.3259 66.3261 58.482C67.136 57.6381 67.5909 56.4935 67.5909 55.3C67.5909 54.1065 67.136 52.9619 66.3261 52.118C65.5163 51.2741 64.418 50.8 63.2727 50.8Z" fill="#009FAC"/>
</g>
<defs>
<filter id="filter0_d_6364_1802" x="0.5" y="0" width="110" height="110" filterUnits="userSpaceOnUse" color-interpolation-filters="sRGB">
<feFlood flood-opacity="0" result="BackgroundImageFix"/>
<feColorMatrix in="SourceAlpha" type="matrix" values="0 0 0 0 0 0 0 0 0 0 0 0 0 0 0 0 0 0 127 0" result="hardAlpha"/>
<feOffset dy="4"/>
<feGaussianBlur stdDeviation="10"/>
<feColorMatrix type="matrix" values="0 0 0 0 0.00256944 0 0 0 0 0.213117 0 0 0 0 0.616667 0 0 0 0.15 0"/>
<feBlend mode="normal" in2="BackgroundImageFix" result="effect1_dropShadow_6364_1802"/>
<feBlend mode="normal" in="SourceGraphic" in2="effect1_dropShadow_6364_1802" result="shape"/>
</filter>
</defs>
</svg>
